<?xml version="1.0" encoding="UTF-8" standalone="no"?><!DOCTYPE svg PUBLIC "-//W3C//DTD SVG 1.1//EN" "http://www.w3.org/Graphics/SVG/1.1/DTD/svg11.dtd"><svg width="100%" height="100%" viewBox="0 0 1875 2146" version="1.1" xmlns="http://www.w3.org/2000/svg" xmlns:xlink="http://www.w3.org/1999/xlink" xml:space="preserve" xmlns:serif="http://www.serif.com/" style="fill-rule:evenodd;clip-rule:evenodd;stroke-linejoin:round;stroke-miterlimit:2;"><g><g><path d="M1719.8,554.227c1.097,-3.557 1.841,-7.222 2.239,-10.921c1.148,-10.574 -0.568,-21.512 -5.347,-31.052c-2.267,-4.528 -4.415,-9.318 -9.557,-10.909c-4.363,-1.352 -9.42,-0.534 -13.284,1.835c-6.034,3.711 -9.682,10.273 -12.404,16.808c-5.528,13.29 -11.881,25.858 -18.523,38.643c-5.085,9.778 -9.483,20.739 -15.682,29.841c-12.364,18.165 -55.78,66.257 -63.172,72.649c-8.062,6.972 -15.966,14.148 -23.506,21.694l16.745,-0l-0,41.268c0.528,-0.341 1.051,-0.676 1.551,-1.012c14.972,-9.988 30.108,-19.659 44.444,-30.585c9.472,-7.216 19.137,-14.546 26.557,-23.847c8.455,-10.592 17.08,-21.035 25.609,-31.564c7.318,-9.034 30.296,-52.563 35.188,-64.342c1.977,-4.756 5.432,-8.813 7.415,-13.665c0.648,-1.585 1.227,-3.205 1.727,-4.841Z" style="fill:#e7eaf8;fill-rule:nonzero;"/><path d="M1784.78,1190.45c-19.194,16.108 -36.597,34.205 -53.967,52.262c-4.966,5.165 -9.949,10.381 -14.051,16.279c-3.347,4.801 -7.802,11.313 -6.762,17.37c1.347,7.943 18.489,9.847 24.972,10.21c9.057,0.512 17.296,-0.926 25.569,-4.528c8.051,-3.506 12.602,-8.898 16.574,-16.722c3.557,-7.012 6.875,-14.682 13.392,-19.08c6.108,-4.114 14.694,-5.114 18.597,-11.364c1.995,-3.205 2.285,-7.159 2.296,-10.944c0.017,-7.096 -2.04,-14.113 -2.04,-21.097c0,-5.119 1.051,-10.784 -0.568,-15.807c-1.392,-4.29 -6.864,-6.858 -11.137,-7.011c-4.767,-0.182 -9.426,1.971 -12.977,5.159l0.102,5.273Z" style="fill:#251b28;fill-rule:nonzero;"/><path d="M1729.52,1158.73c-21.869,12.233 -42.358,26.75 -62.796,41.239c-5.847,4.137 -11.716,8.33 -16.853,13.358c-4.182,4.091 -9.773,9.654 -9.898,15.79c-0.153,8.057 16.33,13.143 22.626,14.711c8.801,2.193 17.165,2.324 25.96,0.341c8.574,-1.938 14.052,-6.392 19.416,-13.324c4.812,-6.222 9.506,-13.143 16.733,-16.239c6.767,-2.892 15.387,-2.273 20.387,-7.682c2.562,-2.773 3.591,-6.608 4.307,-10.319c1.346,-6.971 0.636,-14.244 1.949,-21.102c0.954,-5.035 3.045,-10.398 2.392,-15.637c-0.551,-4.472 -5.449,-8.023 -9.62,-8.977c-4.648,-1.063 -9.625,0.17 -13.71,2.642l-0.893,5.199Z" style="fill:#251b28;fill-rule:nonzero;"/><path d="M1756.08,1069.92c1.387,-44.95 -6.505,-57.996 -9.227,-78.598l-0.034,-0.262c3.614,-7.608 6.074,-16.199 6.398,-25.279c0.528,-15.171 -1.08,-36.665 -0.807,-51.842c0.54,-31.375 27.29,-133.247 -37.251,-150.259c-9.699,-2.557 -25.194,-20.966 -33.097,-13.955c-1.619,1.444 -6.659,8.251 -10.12,22.751c-1.971,8.273 -2.727,20.813 -3.824,31.847c-1.875,18.915 -1.181,40.887 2.802,64.081c5.255,30.614 6.216,104.554 22.142,137.492c7.739,36.654 12.341,167.583 12.427,167.964c1.863,8.852 7.721,18.426 38,16.102c8.216,-0.636 11.984,-24.773 13.086,-31.245c4.716,-27.864 -1.364,-60.501 -0.495,-88.797Z" style="fill:#2c2230;fill-rule:nonzero;"/><path d="M1817.02,768.828l-3.755,-5.148c-14.126,6.83 -31.319,4.722 -47.894,6.364c-35.773,3.546 -38.642,9.813 -61.853,-6.364c-5.171,24.535 0.381,47.763 0.068,53.24c-1.608,28.171 24.518,31.001 25.262,45.899c1.722,34.501 4.83,102.638 9.387,136.895c1.267,9.557 2.755,19.296 6.034,28.302c0.54,11.591 1.142,23.176 1.784,34.762c4.795,86.502 3.892,130.593 10.665,148.764c5.585,15.006 25.319,14.245 38.171,10.279c5.631,-1.733 10.995,-4.909 14.336,-9.75c3.256,-4.722 4.335,-10.557 5.25,-16.217c8.426,-52.035 7.545,-104.064 -2.779,-155.566c-2.113,-27.222 2.103,-65.365 8.489,-91.905c12.927,-53.677 18.83,-112.712 -3.165,-179.555Z" style="fill:#3a3240;fill-rule:nonzero;"/><path d="M1818.62,711.117c-1.148,8.96 -2.023,18.097 -2.341,27.125c0.432,-9.074 1.21,-18.125 2.341,-27.125Z" style="fill:#efa682;fill-rule:nonzero;"/><path d="M1816.28,738.242c-0.261,5.5 -0.392,11.018 -0.392,16.523l0.318,-0.147c-0.153,-5.461 -0.119,-10.915 0.074,-16.376Z" style="fill:#efa682;fill-rule:nonzero;"/><path d="M1816.28,738.242c0.432,-9.074 1.21,-18.125 2.341,-27.125c1.483,-11.552 3.477,-22.881 6.068,-34.149c4.608,-20.085 9.904,-36.148 15.387,-56.024c3.068,-11.079 9.756,-27.898 10.665,-35.813c2.114,-18.273 -8.466,-32.37 -32.12,-48.399c-15.978,-10.824 -47.904,-25.057 -79.127,-34.836c-43.717,-13.682 -49.864,2.256 -62.433,37.132c-11.705,32.466 -8.318,85.996 -3.079,120.554c2.772,18.301 4.477,36.767 5.102,55.256c0.545,15.944 -1.262,31.109 -3.904,46.717c38.24,27.097 90.423,20.2 134.077,9.62c2.722,-0.494 5.307,-1.301 7.767,-2.347c-0.88,-10.165 -1.108,-20.375 -0.744,-30.586Z" style="fill:#dfe1f6;fill-rule:nonzero;"/><path d="M1738.73,739.333c-4.756,4.034 -10.375,8.875 -15.051,12.898c-6.768,-10.619 -6.961,-11.511 -13.228,-22.171c-0.205,-63.245 2.517,-122.514 17.62,-183.072c5.846,4.159 8.789,6.239 14.699,10.398c-7.665,57.939 -12.427,118.213 -4.04,181.947Z" style="fill:#2c2230;fill-rule:nonzero;"/><path d="M1721.79,545.556l-0.091,0.887c0.057,1.784 1.159,4.011 1.75,5.682c1.318,3.625 2.966,7.113 4.926,10.426c1.08,1.813 2.358,3.665 4.307,4.466c2.188,0.892 4.728,0.239 6.785,-0.92c2.352,-1.319 6.653,-3.279 6.136,-6.216c-0.466,-2.563 -1.375,-5.143 -2.216,-7.597c-1.722,-5.035 -4.057,-11.273 -8.699,-14.347c-5.205,-3.455 -8.921,1.727 -11.682,5.585c-0.568,0.807 -1.028,1.307 -1.216,2.034Z" style="fill:#251b28;fill-rule:nonzero;"/><path d="M1787.83,519.948c1.125,35.296 -65.109,35.887 -64.154,2.699c1.329,-46.268 4.141,-51.581 25.943,-58.757c5.966,-1.972 12.216,-3.472 18.529,-3.591c23.018,-0.421 14.103,11.256 13.239,19.409c-2.568,24.183 6.045,27.529 6.443,40.24Z" style="fill:#f1a481;fill-rule:nonzero;"/><path d="M1734.53,541.71c-1.171,3.778 -6.171,5.091 -9.455,7.284c-1.443,0.966 -3.966,2.835 -5.858,2.432c-1.909,-0.398 -3.051,-2.932 -3.699,-4.506c-4.687,-11.392 -7.347,-23.813 -7.466,-36.148c-0.051,-3.893 0.585,-8.268 3.648,-11.018c2.75,-2.471 7.494,-3.006 10.864,-1.528c3.613,1.585 4.5,8.716 3.204,12.006c-4.625,11.818 0.642,25.426 8.762,31.478Z" style="fill:#ededed;fill-rule:nonzero;"/><path d="M1734.01,541.863c-0,-0 5.75,9.091 12.773,15.341c1.744,1.546 3.136,3.455 5.46,2.705c11.37,-3.654 35.308,-23.751 40.075,-36.467c1.716,-4.597 -1.608,-10.29 -4.233,-13.892c-0.466,-0.642 -4.119,-5.614 -4.818,-6.097c-0.472,0.716 -2.949,9.83 -6.938,15.722c-9.199,13.569 -26.001,20.466 -42.319,22.688Z" style="fill:#ededed;fill-rule:nonzero;"/><path d="M1694.43,407.661c-4.915,7.847 -7.79,16.91 -7.688,26.529c0.04,4.142 0.727,8.273 2.102,12.188c1.313,3.699 3.642,7.188 3.682,11.233c0.046,4.739 -3.358,10.035 -4.909,14.489c-1.387,4.04 -2.176,8.563 -0.585,12.523c0.926,2.273 2.545,4.165 3.858,6.239c6.261,9.841 0.352,24.358 11.267,31.438c2.716,1.75 5.938,2.102 9.165,2.279c4.04,0.204 22.233,-4.893 29.279,-8.001c7.779,-3.437 15.364,-12.284 20.978,-18.676c4.397,-5 11.773,-11.415 14.574,-17.415c0.858,-1.841 -1.205,-2.182 0.676,-3.091c1.131,-0.551 2.517,-7.796 3.773,-7.932c1.494,-0.165 3.523,-1.813 4.795,-2.671c2.444,-1.625 3.608,4.296 4.415,1.478c3.415,-11.984 7.745,-24.211 7.239,-36.848c-0.472,-11.574 -0.216,-21.512 -7.671,-31.353c-5.591,-7.381 -13.591,-12.767 -22.256,-16.068c-13.233,-5.034 -28.233,-5.307 -41.637,-0.739c-12.705,4.324 -23.995,13.114 -31.057,24.398Z" style="fill:#fbc4aa;fill-rule:nonzero;"/><path d="M1738.33,418.315c3.267,-0.523 6.557,-0.432 9.546,0.92c5.085,2.279 8.108,7.796 8.92,13.308c1.79,12.142 -2.397,24.261 -2.738,36.307c-0.057,1.807 0.057,3.705 0.943,5.273c2.432,4.29 6.966,1.966 9.54,-0.761c1.653,-1.745 2.938,-3.79 4.517,-5.597c1.58,-1.801 3.563,-3.398 5.926,-3.83c3.762,-0.682 6.665,2.284 7.262,5.773c0.545,3.176 -0.046,6.381 -0.881,9.449c-0.204,0.733 -1.795,6.284 0.483,6.307c2.29,0.023 22.387,-20.682 23.296,-55.848c0.858,-33.739 -22.54,-40.035 -22.54,-40.035c-0,0 -10.313,-17.483 -37.495,-16.182c-14.285,0.682 -28.274,5.336 -40.348,12.881l-1.449,0.915c-5.863,3.813 -11.409,8.347 -15.204,14.216c-10.427,16.131 3.619,29.052 20.528,26.347c7.961,-1.272 15.302,-4.96 22.91,-7.63c2.182,-0.768 4.477,-1.438 6.784,-1.813Z" style="fill:#251b28;fill-rule:nonzero;"/><path d="M1778.97,453.651c9.177,-0.619 11.501,10.767 5.199,19.563c-1.829,2.568 -5.085,4.847 -7.489,6.898c-16.432,13.989 -20.562,-1.154 -15.341,-5.926c12.131,-11.063 6.091,-19.762 17.631,-20.535Z" style="fill:#fbc4aa;fill-rule:nonzero;"/><path d="M1774.48,474.595c1.017,-0.932 11.103,-6.881 4.239,-10.933c-1.903,-1.13 -4.028,0.54 -4.318,2.557c-0.148,1.04 0.182,2.108 0.022,3.154c-0.096,0.619 -0.352,1.199 -0.676,1.739c-0.897,1.448 -3.954,2.852 -3.358,4.988c0.534,1.887 3.506,-0.971 4.091,-1.505Z" style="fill:#efa682;fill-rule:nonzero;"/><path d="M1681.47,752.191c4.347,-9.096 32.865,-10.767 42.319,-11.437c15.887,-1.125 49.041,-18.177 79.28,-29.319l4.506,45.83c-29.108,5.603 -65.598,12.256 -92.451,18.205c-5.216,1.16 -6.466,-2.397 -10.602,-5.659c-6.642,-5.216 -26.421,-10.574 -23.052,-17.62Z" style="fill:#fbbc9f;fill-rule:nonzero;"/><path d="M1818.49,696.429c7.154,-8.841 0.551,-22.086 -1.392,-31.609c-2.778,-13.636 -7.312,-26.807 -10.841,-40.251c-3.688,-14.034 -11.472,-49.234 4.779,-63.819c6.738,-6.046 18.449,-10.563 26.75,-5.767c8.341,4.824 14.665,12.852 18.904,21.375c9.818,19.739 10.119,41.422 12.154,62.871c1.056,11.119 8.244,56.387 5.568,67.882c-4.011,17.245 -18.393,27.824 -32.819,36.489c-14.767,8.881 -31.313,14.467 -48.069,18.183c-12.25,2.716 -24.092,7.074 -36.461,9.272c-3.159,0.557 -6.33,0.955 -9.529,1.199c-2.795,0.216 -4.818,-0.204 -6.227,-2.727c-1.801,-3.222 -3.381,-6.585 -4.836,-9.983c-1.875,-4.392 -3.772,-8.813 -5.039,-13.427c-1.097,-3.977 -2.25,-7.943 2.443,-9.761c17.688,-6.841 35.199,-14.29 52.666,-21.699c8.886,-3.773 30.364,-16.262 31.949,-18.228Z" style="fill:#f0f1f6;fill-rule:nonzero;"/><path d="M1678.99,747.498c-1.443,0.745 -2.432,1.244 -3.886,2.978c-1.478,1.772 -2.438,3.994 -2.609,6.306c-0.249,3.29 1.114,6.631 3.467,8.915l1.994,1.529c0.375,0.704 -0.546,0.92 -1.103,1.534c-3.494,3.892 -0.994,11.307 8.359,12.46c0.38,13.268 36.052,4.915 47.904,-3.647c3.654,-2.637 3.568,-5.063 4.813,-9.597l-12.404,-25.887c-7.438,-1.625 -15.012,-2.892 -22.625,-3.199c-5.279,-0.21 -10.915,-0.085 -15.91,1.835c-2.829,1.085 -5.324,2.79 -6.67,5.535c-0.307,0.63 -0.79,0.96 -1.33,1.238Z" style="fill:#fbbc9f;fill-rule:nonzero;"/><path d="M1678.59,736.254c-0.705,1.284 -0.375,3 0.494,4.221c0.784,1.114 2.193,2.375 3.523,2.756c1.409,0.415 2.761,0.455 4.022,1.392c5.41,4.017 12.467,6.012 19.154,6.568c2.017,0.171 4.08,0.194 6.029,-0.369c1.943,-0.562 3.773,-1.773 4.699,-3.574c0.636,-1.227 0.755,-2.858 -0.165,-3.892c-0.483,-0.54 -1.187,-0.835 -1.864,-1.108c-5.585,-2.256 -11.307,-4.216 -17.085,-5.903c-1.085,-0.313 -2.171,-0.358 -3.239,-0.699c-1.42,-0.472 -2.829,-0.961 -4.296,-1.296c-2.835,-0.653 -5.84,-0.864 -8.647,0.057c-0.932,0.301 -1.858,0.756 -2.432,1.546l-0.193,0.301Z" style="fill:#fbbc9f;fill-rule:nonzero;"/><path d="M1688.95,743.083c-6.153,0.273 -12.034,1.375 -18.114,2.25c-6.29,0.904 -12.557,2.103 -18.654,3.938c-1.949,0.585 -3.897,1.25 -5.648,2.284c-1.96,1.142 -6.113,4.261 -4.221,6.779c0.505,0.676 1.238,1.164 1.994,1.528c2.188,1.074 4.699,1.358 7.125,1.182c6.165,-0.415 12.449,-2.551 18.41,-4.097c6.426,-1.665 12.807,-3.454 19.153,-5.386l-0.045,-8.478Z" style="fill:#fbbc9f;fill-rule:nonzero;"/><path d="M1636.83,699.23l-95.741,-54.768l4.438,-2.972l95.735,54.763l-4.432,2.977Z" style="fill:#413948;fill-rule:nonzero;"/><path d="M1636.83,699.23l38.955,118.889l2.415,-5.506l-36.938,-116.36l-4.432,2.977Z" style="fill:#2c2230;fill-rule:nonzero;"/><path d="M1675.78,818.119l-95.74,-54.774l-38.956,-118.883l95.741,54.768l38.955,118.889Z" style="fill:#2c2230;fill-rule:nonzero;"/><path d="M1568.47,728.964c-5.943,2.898 -9.085,-4.245 -6.494,-6.688c2.557,-2.426 11.989,-3.432 14.051,1.58c1.688,4.108 -3.659,3.204 -7.557,5.108Z" style="fill:#fbbc9f;fill-rule:nonzero;"/><path d="M1552.38,695.423c-3.642,2.54 -0.909,9.398 1.011,9.517c1.091,0.069 2.268,-0.835 3.228,-1.233c2.352,-0.965 4.96,-1.215 7.636,-0.721c1.085,0.193 2.188,0.517 3.239,0.449c1.04,-0.08 2.051,-0.603 2.489,-1.801c1.704,-4.631 -5.625,-7.256 -7.745,-7.847c-5.699,-1.563 -8.216,0.5 -9.858,1.636Z" style="fill:#fbbc9f;fill-rule:nonzero;"/><path d="M1554.66,713.304c2.915,2.813 3.898,-2.403 12.023,-1.096c1.085,0.17 2.193,0.471 3.227,0.375c1.04,-0.103 2.04,-0.659 2.46,-1.87c1.637,-4.693 -5.687,-7.153 -7.818,-7.693c-10.091,-2.546 -15.205,5.165 -9.892,10.284Z" style="fill:#fbbc9f;fill-rule:nonzero;"/><path d="M1558.2,721.356c3.279,1.375 3.728,-0.233 9.983,-0.927c9.654,-1.074 6.109,-9.812 -5.346,-8.079c-0.705,0.108 -3.824,0.574 -4.688,0.903c-3.591,1.347 -3.415,6.654 0.051,8.103Z" style="fill:#fbbc9f;fill-rule:nonzero;"/><path d="M435.308,656.275l-19.086,-11.091l-34.91,-78.866l19.086,11.097l34.91,78.86Z" style="fill:#fb6762;fill-rule:nonzero;"/><path d="M511.111,340.546l19.085,11.091c-5.386,-3.13 -12.847,-2.687 -21.074,2.063l-19.086,-11.091c8.228,-4.75 15.688,-5.194 21.075,-2.063Z" style="fill:#fb6762;fill-rule:nonzero;"/><clipPath id="_clip1"><path d="M511.111,340.546l19.085,11.091c-5.386,-3.13 -12.847,-2.687 -21.074,2.063l-19.086,-11.091c8.228,-4.75 15.688,-5.194 21.075,-2.063Z" clip-rule="nonzero"/></clipPath><g clip-path="url(#_clip1)"><path d="M509.122,353.7l-19.086,-11.091c8.228,-4.75 15.688,-5.194 21.075,-2.063l19.085,11.091c-5.386,-3.13 -12.847,-2.687 -21.074,2.063Z" style="fill:#fb6762;fill-rule:nonzero;"/></g><path d="M339.402,602.524l-19.085,-11.092c-5.318,-3.091 -8.614,-9.659 -8.637,-18.994l19.08,11.091c0.029,9.335 3.324,15.904 8.642,18.995Z" style="fill:#fb6762;fill-rule:nonzero;"/><clipPath id="_clip2"><path d="M339.402,602.524l-19.085,-11.092c-5.318,-3.091 -8.614,-9.659 -8.637,-18.994l19.08,11.091c0.029,9.335 3.324,15.904 8.642,18.995Z" clip-rule="nonzero"/></clipPath><g clip-path="url(#_clip2)"><path d="M339.402,602.524l-19.085,-11.092c-5.318,-3.091 -8.614,-9.659 -8.637,-18.994l19.08,11.091c0.029,9.335 3.324,15.904 8.642,18.995Z" style="fill:#fb6762;fill-rule:nonzero;"/></g><path d="M330.76,583.529l-19.08,-11.091l-0.267,-92.616l19.086,11.091l0.261,92.616Z" style="fill:#fb6762;fill-rule:nonzero;"/><path d="M360.022,439.781l-19.085,-11.091l149.099,-86.081l19.086,11.091l-149.1,86.081Z" style="fill:#fb6762;fill-rule:nonzero;"/><path d="M330.499,490.913l-19.086,-11.091c-0.051,-18.796 13.165,-41.688 29.524,-51.132l19.085,11.091c-16.358,9.444 -29.574,32.336 -29.523,51.132Z" style="fill:#fb6762;fill-rule:nonzero;"/><clipPath id="_clip3"><path d="M330.499,490.913l-19.086,-11.091c-0.051,-18.796 13.165,-41.688 29.524,-51.132l19.085,11.091c-16.358,9.444 -29.574,32.336 -29.523,51.132Z" clip-rule="nonzero"/></clipPath><g clip-path="url(#_clip3)"><path d="M330.499,490.913l-19.086,-11.091c-0.051,-18.796 13.165,-41.688 29.524,-51.132l19.085,11.091c-16.358,9.444 -29.574,32.336 -29.523,51.132Z" style="fill:#fb6762;fill-rule:nonzero;"/></g><path d="M509.122,353.7c16.353,-9.443 29.66,-1.864 29.711,16.926l0.261,92.622c0.057,18.796 -13.165,41.688 -29.517,51.132l-39.922,23.046l-34.347,118.849l-34.91,-78.86l-39.921,23.046c-16.359,9.443 -29.66,1.858 -29.717,-16.932l-0.261,-92.616c-0.051,-18.796 13.165,-41.688 29.523,-51.132l149.1,-86.081Z" style="fill:#fa433d;fill-rule:nonzero;"/><path d="M452.178,419.139c7.67,-4.426 15.312,-5.625 20.58,-3.46c17.386,7.142 17.153,51.006 -43.768,129.332c-61.161,-7.847 -61.638,-51.302 -44.354,-78.462c5.233,-8.222 12.864,-15.841 20.535,-20.268c9.085,-5.25 18.239,-6.017 23.546,1.995c5.25,-14.108 14.37,-23.887 23.461,-29.137Z" style="fill:#f0f1f6;fill-rule:nonzero;"/><path d="M1294.01,500.919l-19.086,-11.091l-34.91,-78.866l19.086,11.092l34.91,78.865Z" style="fill:#fb6762;fill-rule:nonzero;"/><path d="M1369.82,185.191l19.085,11.091c-5.386,-3.131 -12.847,-2.688 -21.074,2.062l-19.086,-11.091c8.228,-4.75 15.688,-5.193 21.075,-2.062Z" style="fill:#fb6762;fill-rule:nonzero;"/><clipPath id="_clip4"><path d="M1369.82,185.191l19.085,11.091c-5.386,-3.131 -12.847,-2.688 -21.074,2.062l-19.086,-11.091c8.228,-4.75 15.688,-5.193 21.075,-2.062Z" clip-rule="nonzero"/></clipPath><g clip-path="url(#_clip4)"><path d="M1367.83,198.344l-19.086,-11.091c8.228,-4.75 15.688,-5.193 21.075,-2.062l19.085,11.091c-5.386,-3.131 -12.847,-2.688 -21.074,2.062Z" style="fill:#fb6762;fill-rule:nonzero;"/></g><path d="M1198.11,447.168l-19.085,-11.091c-5.318,-3.091 -8.614,-9.66 -8.637,-18.995l19.086,11.091c0.023,9.336 3.318,15.904 8.636,18.995Z" style="fill:#fb6762;fill-rule:nonzero;"/><clipPath id="_clip5"><path d="M1198.11,447.168l-19.085,-11.091c-5.318,-3.091 -8.614,-9.66 -8.637,-18.995l19.086,11.091c0.023,9.336 3.318,15.904 8.636,18.995Z" clip-rule="nonzero"/></clipPath><g clip-path="url(#_clip5)"><path d="M1198.11,447.168l-19.085,-11.091c-5.318,-3.091 -8.614,-9.66 -8.637,-18.995l19.086,11.091c0.023,9.336 3.318,15.904 8.636,18.995Z" style="fill:#fb6762;fill-rule:nonzero;"/></g><path d="M1189.47,428.173l-19.086,-11.091l-0.261,-92.616l19.08,11.091l0.267,92.616Z" style="fill:#fb6762;fill-rule:nonzero;"/><path d="M1218.73,284.426l-19.086,-11.091l149.1,-86.082l19.086,11.091l-149.1,86.082Z" style="fill:#fb6762;fill-rule:nonzero;"/><path d="M1189.2,335.557l-19.08,-11.091c-0.057,-18.796 13.159,-41.688 29.517,-51.131l19.086,11.091c-16.358,9.443 -29.574,32.336 -29.523,51.131Z" style="fill:#fb6762;fill-rule:nonzero;"/><clipPath id="_clip6"><path d="M1189.2,335.557l-19.08,-11.091c-0.057,-18.796 13.159,-41.688 29.517,-51.131l19.086,11.091c-16.358,9.443 -29.574,32.336 -29.523,51.131Z" clip-rule="nonzero"/></clipPath><g clip-path="url(#_clip6)"><path d="M1189.2,335.557l-19.08,-11.091c-0.057,-18.796 13.159,-41.688 29.517,-51.131l19.086,11.091c-16.358,9.443 -29.574,32.336 -29.523,51.131Z" style="fill:#fb6762;fill-rule:nonzero;"/></g><path d="M1367.83,198.344c16.353,-9.443 29.66,-1.863 29.711,16.932l0.261,92.616c0.057,18.796 -13.165,41.689 -29.517,51.132l-39.922,23.046l-34.347,118.849l-34.91,-78.865l-39.921,23.051c-16.359,9.444 -29.66,1.858 -29.711,-16.932l-0.267,-92.616c-0.051,-18.795 13.165,-41.688 29.523,-51.131l149.1,-86.082Z" style="fill:#fa433d;fill-rule:nonzero;"/><path d="M1299.76,328.057l2.983,-22.25l-18.347,10.597l-2.989,22.08l18.353,-10.427Zm-54.541,31.319l22.199,-12.818l2.989,-22.08l-22.364,12.909l2.273,-17.461l22.699,-13.108l5.392,-38.273l13.983,-8.074l-5.392,38.273l17.938,-10.352l5.245,-38.194l13.989,-8.074l-5.245,38.188l24.984,-14.421l-2.108,17.37l-25.069,14.472l-2.989,22.25l25.069,-14.472l-1.966,17.285l-26.029,15.023l-5.392,38.273l-13.989,8.074l5.392,-38.267l-18.012,10.233l-5.392,38.438l-13.989,8.074l5.392,-38.444l-21.739,12.552l2.131,-17.376Z" style="fill:#f0f1f6;fill-rule:nonzero;"/><path d="M472.718,768.266l22.921,13.324c-7.739,-4.5 -18.461,-3.87 -30.296,2.96l-22.927,-13.318c11.836,-6.836 22.557,-7.466 30.302,-2.966Z" style="fill:#fb6762;fill-rule:nonzero;"/><clipPath id="_clip7"><path d="M472.718,768.266l22.921,13.324c-7.739,-4.5 -18.461,-3.87 -30.296,2.96l-22.927,-13.318c11.836,-6.836 22.557,-7.466 30.302,-2.966Z" clip-rule="nonzero"/></clipPath><g clip-path="url(#_clip7)"><path d="M465.343,784.55l-22.927,-13.318c11.836,-6.836 22.557,-7.466 30.302,-2.966l22.921,13.324c-7.739,-4.5 -18.461,-3.87 -30.296,2.96Z" style="fill:#fb6762;fill-rule:nonzero;"/></g><path d="M266.424,1245.83l-22.921,-13.318l-71.86,-100.917l22.921,13.324l71.86,100.911Z" style="fill:#e1312a;fill-rule:nonzero;"/><path d="M35.726,1222.09l-22.921,-13.324c-7.648,-4.444 -12.393,-13.887 -12.433,-27.308l22.921,13.324c0.04,13.416 4.785,22.865 12.433,27.308Z" style="fill:#fb6762;fill-rule:nonzero;"/><clipPath id="_clip8"><path d="M35.726,1222.09l-22.921,-13.324c-7.648,-4.444 -12.393,-13.887 -12.433,-27.308l22.921,13.324c0.04,13.416 4.785,22.865 12.433,27.308Z" clip-rule="nonzero"/></clipPath><g clip-path="url(#_clip8)"><path d="M35.726,1222.09l-22.921,-13.324c-7.648,-4.444 -12.393,-13.887 -12.433,-27.308l22.921,13.324c0.04,13.416 4.785,22.865 12.433,27.308Z" style="fill:#fb6762;fill-rule:nonzero;"/></g><path d="M23.293,1194.78l-22.921,-13.324l-0.375,-105.775l22.921,13.324l0.375,105.775Z" style="fill:#fb6762;fill-rule:nonzero;"/><path d="M65.368,1015.48l-22.921,-13.325l399.969,-230.919l22.927,13.318l-399.975,230.926Z" style="fill:#fb6762;fill-rule:nonzero;"/><path d="M22.918,1089.01l-22.921,-13.324c-0.079,-27.012 18.944,-59.956 42.45,-73.53l22.921,13.325c-23.506,13.568 -42.523,46.518 -42.45,73.529Z" style="fill:#fb6762;fill-rule:nonzero;"/><clipPath id="_clip9"><path d="M22.918,1089.01l-22.921,-13.324c-0.079,-27.012 18.944,-59.956 42.45,-73.53l22.921,13.325c-23.506,13.568 -42.523,46.518 -42.45,73.529Z" clip-rule="nonzero"/></clipPath><g clip-path="url(#_clip9)"><path d="M22.918,1089.01l-22.921,-13.324c-0.079,-27.012 18.944,-59.956 42.45,-73.53l22.921,13.325c-23.506,13.568 -42.523,46.518 -42.45,73.529Z" style="fill:#fb6762;fill-rule:nonzero;"/></g><path d="M465.343,784.55c23.523,-13.58 42.648,-2.659 42.728,24.353l0.375,105.775c0.074,27.012 -18.927,59.944 -42.45,73.53l-128.542,74.212l-71.03,183.407l-71.86,-100.911l-128.537,74.212c-23.512,13.574 -42.654,2.664 -42.734,-24.348l-0.375,-105.775c-0.073,-27.011 18.944,-59.961 42.45,-73.529l399.975,-230.926Z" style="fill:#ef403a;fill-rule:nonzero;"/><path d="M124.273,1081.38c7.006,-4.046 10.568,-11.915 10.568,-26.956c0,-10.92 -2.46,-16.028 -9.83,-11.772l-6.142,3.545l0,38.302l5.404,-3.119Zm-1.108,-47.734c15.477,-8.938 22.603,-4.682 22.603,14.892c-0,15.177 -4.296,26.171 -10.682,33.972c3.926,3.836 10.318,13.194 11.545,34.331c0,2.125 -0.369,3.045 -5.034,5.744c-1.602,0.921 -3.568,1.915 -5.778,3.051c-1.347,-23.193 -7.126,-31.773 -10.2,-34.54l-2.329,1.488l-4.421,2.552l0,38.023c0,2.267 -0.125,2.335 -9.829,7.938l-0,-97.025c-0,0 -0,-2.273 1.966,-3.409l12.159,-7.017Z" style="fill:#fff;fill-rule:nonzero;"/><path d="M184.717,1061.8l-4.176,-18.018c-1.966,-8.364 -3.807,-18.369 -4.301,-24.892c-0.733,7.233 -2.455,19.29 -4.421,29.926l-4.176,22.842l17.074,-9.858Zm17.563,23.335c0.25,1.421 -0.363,2.625 -4.295,4.893c-1.353,0.778 -3.319,1.914 -5.898,3.119l-5.159,-22.273l-21.376,12.347l-4.79,26.029c-0.369,1.772 -0.738,2.693 -4.67,4.966c-1.228,0.71 -3.807,2.056 -6.142,3.119l21.994,-110.292c0.245,-1.557 1.597,-2.909 3.682,-4.108c1.722,-0.995 3.443,-1.847 4.671,-2.273l21.983,84.473Z" style="fill:#fff;fill-rule:nonzero;"/><path d="M241.48,965.332l-0,8.37c-0,1.841 -0.614,2.761 -2.091,3.614l-15.108,8.727l-0.006,86.246c-0,2.267 -0.244,2.415 -9.949,8.012l-0,-88.514l-16.705,9.648l0,-8.511c0,-1.563 0.614,-2.625 2.085,-3.477l41.774,-24.115Z" style="fill:#fff;fill-rule:nonzero;"/><path d="M247.872,966.889c0,-5.244 0.119,-5.318 10.074,-11.062l-0.005,97.024c-0,2.267 -0.245,2.415 -10.075,8.091l0.006,-94.053Z" style="fill:#fff;fill-rule:nonzero;"/><path d="M302.538,932.349c0,-2.273 0.244,-2.409 9.949,-8.017l0,97.03c0,1.415 -0.739,2.693 -2.091,3.472l-7.369,4.255l-14.126,-30.847c-2.091,-5.176 -8.596,-24.262 -11.67,-33.552c0.738,8.796 1.227,35.887 1.227,41.848l-0,34.472c-0,2.267 -0.119,2.341 -9.83,7.944l0,-97.025c0,-1.563 0.62,-2.631 1.972,-3.41l7.489,-4.323l13.881,30.284c2.46,5.819 8.721,24.467 11.795,33.336l0,-0.284c-0.858,-7.875 -1.227,-35.182 -1.227,-41.705l0,-33.478Z" style="fill:#fff;fill-rule:nonzero;"/><path d="M361.386,990.435c-2.83,4.33 -8.233,11.137 -16.83,16.097c-16.341,9.438 -23.097,4.404 -23.097,-35.461c-0,-44.399 10.199,-59.223 26.41,-68.587c8.113,-4.676 13.148,-4.039 13.148,-0.352c-0,2.699 -0.614,5.603 -1.353,8.159c-2.21,-0.71 -5.773,-0.073 -9.83,2.268c-12.528,7.233 -17.812,19.79 -17.812,51.563c-0,33.899 4.789,35.677 12.778,31.063c4.421,-2.551 6.756,-6.165 7.37,-7.801l-0,-35.319l-9.211,5.318l0,-7.233c0,-1.562 0.858,-2.767 2.33,-3.619l16.097,-9.29l-0,53.194Z" style="fill:#fff;fill-rule:nonzero;"/><path d="M376.125,926.883c-5.648,-4.54 -7.739,-9.148 -7.739,-15.955c0,-11.921 7.495,-24.614 21.131,-32.489c11.665,-6.739 16.097,-6.171 16.097,-2.2c0,1.989 -0.739,4.824 -2.46,7.95c-1.602,-0.642 -6.392,0.278 -12.04,3.545c-7.37,4.25 -12.04,10.495 -12.04,16.739c-0,5.245 2.091,7.728 5.653,10.779l13.387,9.716c6.392,5.108 8.233,10.426 8.233,19.222c0,14.472 -5.284,29.716 -21.87,39.29c-11.176,6.455 -16.216,4.824 -16.216,0.995c0,-2.409 0.864,-6.171 2.585,-9.716c2.574,1.204 6.756,1.062 12.648,-2.341c8.847,-5.108 12.165,-12.836 12.165,-21.489c0,-6.671 -1.721,-10.359 -7.25,-14.54l-12.284,-9.506Z" style="fill:#fff;fill-rule:nonzero;"/><path d="M1264.53,1086.55l1.103,-0.205l0.624,-0.039l1.108,0.108l0.506,0.085c0.523,0.148 1.023,0.341 1.506,0.613c-0.551,-0.312 -1.171,-0.642 -1.801,-0.983c-0.688,-0.375 -1.387,-0.738 -2.103,-1.102c-0.75,-0.392 -1.494,-0.778 -2.147,-1.119l-5.495,-2.472c-1.835,-0.756 -4.329,-1.642 -6.187,-2.346l-5.995,-1.898c-1.892,-0.546 -4.449,-1.159 -6.358,-1.654l-2.114,-0.437c-1.113,-0.25 -2.25,-0.483 -3.386,-0.705l-0.835,-0.17l-0.239,-0.04c-15.716,-2.938 -33.217,-3.398 -50.842,-0.193l-1.489,0.233c-1.954,0.358 -4.545,0.949 -6.488,1.352l-6.188,1.619c-1.926,0.563 -4.46,1.421 -6.364,2.035l-5.79,2.215c-4.415,1.87 -4.682,2.012 -11.511,5.694l-0.006,0.006l-54.552,31.699l-54.558,31.705l-54.558,31.705l-54.553,31.706l-54.558,31.705l-54.558,31.711l-54.552,31.699l-163.674,95.116l-54.552,31.7l-54.558,31.705l-54.558,31.705l-54.558,31.705l-54.552,31.706l-54.558,31.705l-54.558,31.705l-54.558,31.705l-54.558,31.7l-54.553,31.711l1.216,-0.557l1090.82,-633.917c1.909,-0.75 4.068,-0.608 6.364,0.721c30.319,-17.648 80.394,-17.648 110.906,0c0.562,-0.324 1.113,-0.551 1.653,-0.744l0.659,-0.193Z" style="fill:#f0f1f6;fill-rule:nonzero;"/><path d="M1144.04,1087.15c2.108,-1.228 4.602,-1.199 7.273,0.34c30.319,-17.648 80.394,-17.648 110.906,0c2.636,-1.528 5.091,-1.568 7.159,-0.369c-12.995,-7.426 -24.972,-10.335 -30.086,-11.58c-4.529,-1.102 -16.779,-3.653 -32.631,-3.653c-15.904,-0 -28.211,2.585 -32.762,3.693c-1.989,0.489 -4.643,1.108 -6.591,1.733c-3.557,1.142 -8.262,2.79 -11.751,4.136c-1.937,0.756 -4.432,1.961 -6.29,2.876c-1.596,0.789 -3.659,1.977 -5.227,2.824Z" style="fill:#f0f1f6;fill-rule:nonzero;"/><path d="M1724.86,1354.59l-462.64,-267.103l1.278,-0.63l23.126,13.352l23.136,13.358l23.132,13.359l23.131,13.352l23.131,13.353l23.131,13.358l23.137,13.353l23.131,13.358l23.131,13.352l23.132,13.359l23.131,13.352l23.131,13.359l23.137,13.358l23.131,13.352l23.131,13.353l23.131,13.358l23.132,13.353l23.131,13.358l23.137,13.352l23.131,13.353l-1.279,0.631Z" style="fill:#f0f1f6;fill-rule:nonzero;"/><path d="M1726.14,1353.96l-23.131,-13.353l-23.137,-13.352l-23.131,-13.358l-23.132,-13.353l-23.131,-13.358l-23.131,-13.353l-23.131,-13.352l-23.137,-13.358l-23.131,-13.359l-23.131,-13.352l-23.132,-13.359l-23.131,-13.352l-23.131,-13.358l-23.137,-13.353l-23.131,-13.358l-23.131,-13.353l-23.131,-13.352l-23.132,-13.359l-23.136,-13.358l-23.126,-13.352c2.148,-0.881 4.148,-0.745 5.875,0.255l46.268,26.711l92.525,53.422l46.262,26.711l46.268,26.71l46.263,26.711l46.268,26.711l46.262,26.711l46.262,26.711l23.132,13.352l23.131,13.353c-1.727,-1 -3.728,-1.131 -5.875,-0.256Z" style="fill:#f0f1f6;fill-rule:nonzero;"/><path d="M1766.9,1417.89c-0.148,4.721 -0.165,5.324 -0.535,8.182c-0.573,4.42 -1.534,7.92 -1.579,8.068c-1.17,4.239 -3.017,9.926 -6.892,16.301c-4.114,6.779 -8.512,11.194 -9.762,12.381c-2.193,2.086 -5.233,4.756 -7.642,6.586c-2.341,1.767 -5.665,3.846 -8.159,5.386c3.79,-2.204 6.324,-8.466 6.346,-17.239c18.785,-10.915 28.183,-25.279 28.223,-39.665Z" style="fill:#95a1dc;fill-rule:nonzero;"/><clipPath id="_clip10"><path d="M1766.9,1417.89c-0.148,4.721 -0.165,5.324 -0.535,8.182c-0.573,4.42 -1.534,7.92 -1.579,8.068c-1.17,4.239 -3.017,9.926 -6.892,16.301c-4.114,6.779 -8.512,11.194 -9.762,12.381c-2.193,2.086 -5.233,4.756 -7.642,6.586c-2.341,1.767 -5.665,3.846 -8.159,5.386c3.79,-2.204 6.324,-8.466 6.346,-17.239c18.785,-10.915 28.183,-25.279 28.223,-39.665Z" clip-rule="nonzero"/></clipPath><g clip-path="url(#_clip10)"><path d="M1766.9,1417.89c-1,32.171 -19.001,47.307 -34.569,56.904c3.79,-2.204 6.324,-8.466 6.346,-17.239c18.785,-10.915 28.183,-25.279 28.223,-39.665Z" style="fill:#95a1dc;fill-rule:nonzero;"/></g><path d="M1766.92,1411.71l-0.017,6.177c-0.04,14.386 -9.438,28.75 -28.223,39.665l0.017,-6.182c18.785,-10.909 28.183,-25.273 28.223,-39.66Z" style="fill:#bbc3e9;fill-rule:nonzero;"/><path d="M52.913,1721.24c363.718,-211.374 727.414,-422.731 1091.13,-634.099c2.108,-1.222 4.602,-1.193 7.273,0.346l-1091.13,634.099c-2.67,-1.551 -5.17,-1.574 -7.273,-0.346Z" style="fill:#c7d0e9;fill-rule:nonzero;"/><clipPath id="_clip11"><path d="M52.913,1721.24c363.718,-211.374 727.414,-422.731 1091.13,-634.099c2.108,-1.222 4.602,-1.193 7.273,0.346l-1091.13,634.099c-2.67,-1.551 -5.17,-1.574 -7.273,-0.346Z" clip-rule="nonzero"/></clipPath><g clip-path="url(#_clip11)"><path d="M1151.31,1087.49l-1091.13,634.099c-2.176,-1.261 -4.233,-1.511 -6.057,-0.903l1091.13,-634.093c1.824,-0.608 3.886,-0.358 6.057,0.897Z" style="fill:#f0f1f6;fill-rule:nonzero;"/></g><path d="M53.237,1841.81c-8.602,-5.324 -34.785,-21.518 -34.91,-57.49c-0.039,14.574 9.523,29.171 28.671,40.222c-0.028,8.819 2.466,15.097 6.239,17.268Z" style="fill:#95a1dc;fill-rule:nonzero;"/><path d="M47.016,1818.36l-0.018,6.176c-19.148,-11.051 -28.71,-25.648 -28.671,-40.222l0.017,-6.182c-0.039,14.574 9.523,29.177 28.672,40.228Z" style="fill:#bbc3e9;fill-rule:nonzero;"/><path d="M18.344,1778.13c0.779,-24.978 11.768,-43.058 34.569,-56.899c2.108,-1.222 4.603,-1.193 7.273,0.352c-30.364,17.614 -30.199,46.621 0.364,64.235c-7.438,4.318 -13.495,18.892 -13.534,32.54c-19.149,-11.051 -28.711,-25.654 -28.672,-40.228Z" style="fill:#f0f1f6;fill-rule:nonzero;"/><path d="M54.129,1720.68c-42.915,24.722 -46.268,70.712 -6.653,91.132c-0.296,2.177 -0.455,4.37 -0.46,6.546c-19.149,-11.051 -28.711,-25.654 -28.672,-40.228c0.035,-1.114 0.08,-2.602 0.12,-3.716c0.415,-4.745 0.443,-5.034 0.966,-7.938l0.778,-3.619c0.369,-1.33 0.847,-3.114 1.267,-4.426l1.284,-3.569c0.586,-1.369 1.364,-3.199 2,-4.54l1.881,-3.534c0.915,-1.483 2.136,-3.46 3.119,-4.898l2.654,-3.5c1.545,-1.778 3.648,-4.102 5.296,-5.772l3.772,-3.404c4.927,-3.858 5.949,-4.653 11.432,-7.983l1.216,-0.551Z" style="fill:#bbc3e9;fill-rule:nonzero;"/><path d="M1732.34,1474.79l-109.116,63.405l-109.11,63.41l-109.116,63.411l-109.11,63.405l-109.116,63.41l-109.11,63.41l-109.116,63.411l-109.111,63.41l-109.11,63.411l-109.116,63.41c3.79,-2.204 6.324,-8.466 6.347,-17.239l1091.12,-634.093c-0.022,8.773 -2.551,15.035 -6.341,17.239Z" style="fill:#95a1dc;fill-rule:nonzero;"/><clipPath id="_clip12"><path d="M1732.34,1474.79l-109.116,63.405l-109.11,63.41l-109.116,63.411l-109.11,63.405l-109.116,63.41l-109.11,63.41l-109.116,63.411l-109.111,63.41l-109.11,63.411l-109.116,63.41c3.79,-2.204 6.324,-8.466 6.347,-17.239l1091.12,-634.093c-0.022,8.773 -2.551,15.035 -6.341,17.239Z" clip-rule="nonzero"/></clipPath><g clip-path="url(#_clip12)"><path d="M647.557,2091.65l1091.12,-634.093c-0.022,8.773 -2.551,15.035 -6.341,17.239l-109.116,63.405l-109.11,63.41l-109.116,63.411l-109.11,63.405l-109.116,63.41l-109.11,63.41l-109.116,63.411l-109.111,63.41l-109.11,63.411l-109.116,63.41c3.79,-2.204 6.324,-8.466 6.347,-17.239Z" style="fill:#95a1dc;fill-rule:nonzero;"/></g><path d="M515.878,2108.91l-46.262,-26.711l-46.269,-26.711l-46.262,-26.711l-46.262,-26.711l-46.263,-26.71l-46.268,-26.711l-46.268,-26.711l-46.256,-26.711l-46.268,-26.71l-46.263,-26.711c-3.773,-2.176 -6.267,-8.449 -6.239,-17.268l462.641,267.108c-0.023,8.813 2.466,15.092 6.239,17.268Z" style="fill:#95a1dc;fill-rule:nonzero;"/><clipPath id="_clip13"><path d="M515.878,2108.91l-46.262,-26.711l-46.269,-26.711l-46.262,-26.711l-46.262,-26.711l-46.263,-26.71l-46.268,-26.711l-46.268,-26.711l-46.256,-26.711l-46.268,-26.71l-46.263,-26.711c-3.773,-2.176 -6.267,-8.449 -6.239,-17.268l462.641,267.108c-0.023,8.813 2.466,15.092 6.239,17.268Z" clip-rule="nonzero"/></clipPath><g clip-path="url(#_clip13)"><path d="M46.998,1824.54l462.641,267.108c-0.023,8.813 2.466,15.092 6.239,17.268l-46.262,-26.711l-46.269,-26.711l-46.262,-26.711l-46.262,-26.711l-46.263,-26.71l-46.268,-26.711l-46.268,-26.711l-46.256,-26.711l-46.268,-26.71l-46.263,-26.711c-3.773,-2.176 -6.267,-8.449 -6.239,-17.268Z" style="fill:#95a1dc;fill-rule:nonzero;"/></g><path d="M1738.7,1451.37l-0.017,6.182l-1091.12,634.093l0.017,-6.176l1091.12,-634.099Z" style="fill:#bbc3e9;fill-rule:nonzero;"/><path d="M509.662,2085.47l-0.023,6.176l-462.641,-267.108l0.018,-6.176l462.646,267.108Z" style="fill:#bbc3e9;fill-rule:nonzero;"/><path d="M633.659,2052.93l1091.12,-634.094c1.08,0.614 2.12,1.449 3.126,2.455l-1091.13,634.099c-1,-1.012 -2.04,-1.841 -3.119,-2.46Z" style="fill:#f0f1f6;fill-rule:nonzero;"/><path d="M60.55,1785.82l462.64,267.108c-1.034,0.602 -2.051,1.403 -3.022,2.38l-462.647,-267.108c0.972,-0.971 1.989,-1.778 3.029,-2.38Z" style="fill:#f0f1f6;fill-rule:nonzero;"/><path d="M57.521,1788.2l462.647,267.108c-2.449,2.455 -4.648,5.983 -6.398,10.108l-462.646,-267.108c1.75,-4.119 3.949,-7.653 6.397,-10.108Z" style="fill:#f0f1f6;fill-rule:nonzero;"/><path d="M51.124,1798.31l462.646,267.108c-1.727,4.08 -3.012,8.745 -3.654,13.506l-462.64,-267.102c0.636,-4.767 1.92,-9.426 3.648,-13.512Z" style="fill:#f0f1f6;fill-rule:nonzero;"/><path d="M47.476,1811.82l462.64,267.102c-0.289,2.177 -0.449,4.376 -0.454,6.546l-462.646,-267.108c0.005,-2.176 0.164,-4.369 0.46,-6.54Z" style="fill:#bbc3e9;fill-rule:nonzero;"/><path d="M641.216,2108.88c-1.568,0.846 -3.637,2.034 -5.228,2.824c-1.863,0.914 -4.358,2.119 -6.29,2.869c-3.488,1.347 -8.193,3 -11.755,4.142c-1.949,0.619 -4.603,1.25 -6.592,1.733c-4.551,1.108 -16.858,3.688 -32.756,3.693c-15.852,0.006 -28.103,-2.557 -32.631,-3.653c-1.921,-0.466 -4.483,-1.057 -6.364,-1.654c-3.58,-1.136 -8.313,-2.75 -11.818,-4.102c-0.216,-0.08 -5.325,-2.057 -11.904,-5.824c-3.773,-2.17 -6.262,-8.449 -6.239,-17.262c38.052,21.967 100.116,21.967 137.918,0c-0.023,8.773 -2.557,15.035 -6.341,17.234Z" style="fill:#95a1dc;fill-rule:nonzero;"/><clipPath id="_clip14"><path d="M641.216,2108.88c-1.568,0.846 -3.637,2.034 -5.228,2.824c-1.863,0.914 -4.358,2.119 -6.29,2.869c-3.488,1.347 -8.193,3 -11.755,4.142c-1.949,0.619 -4.603,1.25 -6.592,1.733c-4.551,1.108 -16.858,3.688 -32.756,3.693c-15.852,0.006 -28.103,-2.557 -32.631,-3.653c-1.921,-0.466 -4.483,-1.057 -6.364,-1.654c-3.58,-1.136 -8.313,-2.75 -11.818,-4.102c-0.216,-0.08 -5.325,-2.057 -11.904,-5.824c-3.773,-2.17 -6.262,-8.449 -6.239,-17.262c38.052,21.967 100.116,21.967 137.918,0c-0.023,8.773 -2.557,15.035 -6.341,17.234Z" clip-rule="nonzero"/></clipPath><g clip-path="url(#_clip14)"><path d="M641.216,2108.88c-44.325,23.904 -96.042,16.773 -125.338,0.028c-3.773,-2.17 -6.262,-8.449 -6.239,-17.262c38.052,21.967 100.116,21.967 137.918,0c-0.023,8.773 -2.557,15.035 -6.341,17.234Z" style="fill:#95a1dc;fill-rule:nonzero;"/></g><path d="M647.574,2085.47l-0.017,6.176c-37.802,21.967 -99.866,21.967 -137.918,0l0.023,-6.176c38.046,21.966 100.11,21.966 137.912,0Z" style="fill:#bbc3e9;fill-rule:nonzero;"/><path d="M647.131,2078.92c-1.495,-11.483 -6.745,-22.359 -13.04,-25.989c-30.308,17.642 -80.388,17.642 -110.901,-0c-6.25,3.63 -11.517,14.517 -13.062,26.006c37.949,21.625 99.314,21.62 137.003,-0.017Z" style="fill:#f0f1f6;fill-rule:nonzero;"/><path d="M510.128,2078.94c-0.29,2.17 -0.461,4.364 -0.466,6.534c38.046,21.966 100.11,21.966 137.912,0c0.006,-2.182 -0.159,-4.375 -0.443,-6.551c-37.689,21.637 -99.054,21.642 -137.003,0.017Z" style="fill:#bbc3e9;fill-rule:nonzero;"/><path d="M523.19,2052.93c30.513,17.642 80.593,17.642 110.901,-0c6.295,3.63 11.545,14.506 13.04,25.989l0.443,-0.228c0.04,-13.653 -5.995,-28.222 -13.483,-32.546c-30.308,17.648 -80.388,17.648 -110.901,0.006c-7.432,4.318 -13.488,18.887 -13.528,32.54l0.466,0.245c1.545,-11.489 6.812,-22.376 13.062,-26.006Z" style="fill:#f0f1f6;fill-rule:nonzero;"/><path d="M1725.22,1418.84c30.359,-17.619 30.199,-46.626 -0.364,-64.245c-154.213,-89.031 -308.427,-178.067 -462.64,-267.103c-30.512,-17.648 -80.587,-17.648 -110.906,0c-4.824,2.807 -9.654,5.614 -14.483,8.421l573.898,331.348c4.836,-2.807 9.665,-5.619 14.495,-8.421Z" style="fill:#f0f1f6;fill-rule:nonzero;"/><path d="M1136.83,1095.91c-358.883,208.556 -717.76,417.117 -1076.64,625.678c-30.364,17.614 -30.199,46.621 0.364,64.235c154.213,89.036 308.427,178.072 462.64,267.108c30.513,17.642 80.593,17.642 110.901,-0c358.882,-208.562 717.759,-417.117 1076.64,-625.673l-573.898,-331.348Z" style="fill:url(#_Linear15);"/><path d="M1727.91,1421.29l-1091.13,634.099c4.87,4.903 9.557,13.767 10.796,23.301l1091.02,-629.922c-0.569,-10.881 -5.154,-21.898 -10.682,-27.478Z" style="fill:#f0f1f6;fill-rule:nonzero;"/><path d="M647.108,2078.95c0.278,2.165 0.472,4.347 0.466,6.517l1091.12,-634.099c0.006,-0.863 -0.062,-1.733 -0.107,-2.602l-1091.48,630.184Z" style="fill:#bbc3e9;fill-rule:nonzero;"/><path d="M1732.01,1354.22c8.602,5.329 34.762,21.529 34.91,57.495c-0.04,14.387 -9.438,28.751 -28.223,39.66c-0.267,-12.83 -6,-28.216 -13.477,-32.535c30.359,-17.619 30.199,-46.626 -0.364,-64.245c2.631,-1.529 5.086,-1.568 7.154,-0.375Z" style="fill:#f0f1f6;fill-rule:nonzero;"/><path d="M1766.58,1405.06c0.079,1.346 0.193,2.665 0.199,4.074c-0.04,14.381 -9.438,28.739 -28.206,39.654c0.063,0.869 0.108,1.733 0.125,2.585c18.785,-10.909 28.183,-25.279 28.223,-39.66c-0.012,-2.301 -0.131,-4.511 -0.341,-6.653Z" style="fill:#bbc3e9;fill-rule:nonzero;"/><path d="M1250.06,1123.15c-10.46,6.04 -10.5,15.813 -0.085,21.83c10.415,6.011 27.336,5.983 37.802,-0.057c10.461,-6.034 10.495,-15.807 0.085,-21.819c-10.42,-6.011 -27.341,-5.994 -37.802,0.046Z" style="fill:#0a1934;fill-rule:nonzero;"/><path d="M1216.24,1102.49c-6.653,3.841 -6.681,10.062 -0.051,13.892c6.625,3.824 17.398,3.813 24.058,-0.034c6.659,-3.841 6.682,-10.063 0.056,-13.887c-6.63,-3.829 -17.398,-3.818 -24.063,0.029Z" style="fill:#0a1934;fill-rule:nonzero;"/><path d="M478.008,2074.94c-0,4.972 3.494,11.012 7.807,13.518c3.091,1.801 5.784,1.25 7.034,-1.069c0.517,-0.886 0.773,-2.028 0.773,-3.426c-0,-5.011 -3.5,-11.051 -7.807,-13.551c-1.103,-0.625 -2.137,-0.955 -3.057,-1.034c-2.796,-0.222 -4.75,1.846 -4.75,5.562Z" style="fill:#dfe1f6;fill-rule:nonzero;"/><path d="M481.951,2072.85c-0,4.971 3.494,11.006 7.801,13.511c1.108,0.625 2.137,0.961 3.097,1.034c0.517,-0.886 0.773,-2.028 0.773,-3.426c-0,-5.011 -3.5,-11.051 -7.807,-13.551c-1.103,-0.625 -2.137,-0.955 -3.057,-1.034c-0.551,0.886 -0.807,2.068 -0.807,3.466Z" style="fill:#0a1934;fill-rule:nonzero;"/><path d="M249.69,1941.89c0,4.932 3.5,10.972 7.813,13.444l21.54,12.443c1.25,0.705 2.432,1.068 3.461,1.068c1.397,0 2.579,-0.625 3.312,-1.767c0.625,-0.92 0.994,-2.21 0.994,-3.79c0,-4.937 -3.494,-10.977 -7.767,-13.443l-21.54,-12.449c-0.813,-0.444 -1.585,-0.773 -2.29,-0.921l-1.176,-0.142c-2.58,0 -4.347,2.063 -4.347,5.557Z" style="fill:#dfe1f6;fill-rule:nonzero;"/><path d="M254.225,1940.27c-0,4.932 3.494,10.972 7.767,13.437l21.58,12.45c0.772,0.477 1.545,0.772 2.244,0.92c0.625,-0.92 0.994,-2.21 0.994,-3.79c0,-4.937 -3.494,-10.977 -7.767,-13.443l-21.54,-12.449c-0.813,-0.444 -1.585,-0.773 -2.29,-0.921c-0.625,0.921 -0.988,2.21 -0.988,3.796Z" style="fill:#0a1934;fill-rule:nonzero;"/><path d="M937.915,696.872l4.438,680.583l303.188,176.185l-4.437,-680.565l-303.189,-176.203Z" style="fill:#d6dbf2;fill-rule:nonzero;"/><path d="M1241.1,873.075l4.437,680.565l305.172,-176.185l-4.438,-680.577l-305.171,176.197Z" style="fill:#bbc3e9;fill-rule:nonzero;"/><path d="M937.915,696.872l303.189,176.203l305.171,-176.197l-303.183,-176.197l-305.177,176.191Z" style="fill:#f0f1f6;fill-rule:nonzero;"/><path d="M551.396,475.191l4.437,1125.41l303.189,176.197l-4.444,-1125.42l-303.182,-176.192Z" style="fill:#fa433d;fill-rule:nonzero;"/><path d="M854.578,651.383l4.444,1125.42l305.171,-176.197l-4.438,-1125.41l-305.177,176.192Z" style="fill:#e1312a;fill-rule:nonzero;"/><path d="M551.396,475.191l303.182,176.192l305.177,-176.192l-303.188,-176.191l-305.171,176.191Z" style="fill:#fb6762;fill-rule:nonzero;"/><path d="M164.876,1401.07l4.438,422.691l303.194,176.191l-4.455,-422.691l-303.177,-176.191Z" style="fill:#d6dbf2;fill-rule:nonzero;"/><path d="M468.053,1577.26l4.455,422.691l305.165,-176.191l-4.443,-422.691l-305.177,176.191Z" style="fill:#bbc3e9;fill-rule:nonzero;"/><path d="M164.876,1401.07l303.177,176.191l305.177,-176.191l-303.183,-176.186l-305.171,176.186Z" style="fill:#f0f1f6;fill-rule:nonzero;"/><path d="M1072.4,92.859l-67.933,-39.472c-2.148,-1.256 -4.972,-1.478 -8.33,-0.313l67.928,39.478c3.369,-1.159 6.182,-0.937 8.335,0.307Z" style="fill:#fbb400;fill-rule:nonzero;"/><clipPath id="_clip16"><path d="M1072.4,92.859l-67.933,-39.472c-2.148,-1.256 -4.972,-1.478 -8.33,-0.313l67.928,39.478c3.369,-1.159 6.182,-0.937 8.335,0.307Z" clip-rule="nonzero"/></clipPath><g clip-path="url(#_clip16)"><path d="M1072.4,92.859l-67.933,-39.472c-2.148,-1.256 -4.972,-1.478 -8.33,-0.313l67.928,39.478c3.369,-1.159 6.182,-0.937 8.335,0.307Z" style="fill:#fbb400;fill-rule:nonzero;"/></g><path d="M676.563,524.579l67.933,39.478c-3.278,-1.909 -5.204,-6.222 -4.608,-12.643l-67.933,-39.472c-0.591,6.421 1.33,10.727 4.608,12.637Z" style="fill:#fbb400;fill-rule:nonzero;"/><clipPath id="_clip17"><path d="M676.563,524.579l67.933,39.478c-3.278,-1.909 -5.204,-6.222 -4.608,-12.643l-67.933,-39.472c-0.591,6.421 1.33,10.727 4.608,12.637Z" clip-rule="nonzero"/></clipPath><g clip-path="url(#_clip17)"><path d="M739.888,551.414l-67.933,-39.472c-0.591,6.421 1.33,10.727 4.608,12.637l67.933,39.478c-3.278,-1.909 -5.204,-6.222 -4.608,-12.643Z" style="fill:#fbb400;fill-rule:nonzero;"/></g><path d="M1064.07,92.552l-67.928,-39.478l-111.315,38.461l67.928,39.484l111.315,-38.467Z" style="fill:#fbb400;fill-rule:nonzero;"/><path d="M876.459,91.183l67.928,39.478c2.261,1.313 5.165,1.455 8.364,0.358l-67.928,-39.484c-3.21,1.103 -6.108,0.961 -8.364,-0.352Z" style="fill:#fbb400;fill-rule:nonzero;"/><clipPath id="_clip18"><path d="M876.459,91.183l67.928,39.478c2.261,1.313 5.165,1.455 8.364,0.358l-67.928,-39.484c-3.21,1.103 -6.108,0.961 -8.364,-0.352Z" clip-rule="nonzero"/></clipPath><g clip-path="url(#_clip18)"><path d="M952.751,131.019l-67.928,-39.484c-3.21,1.103 -6.108,0.961 -8.364,-0.352l67.928,39.478c2.261,1.313 5.165,1.455 8.364,0.358Z" style="fill:#fbb400;fill-rule:nonzero;"/></g><path d="M752.57,414.383l-67.939,-39.472l-12.676,137.031l67.933,39.472l12.682,-137.031Z" style="fill:#fbb400;fill-rule:nonzero;"/><path d="M748.337,401.974l-67.927,-39.473c3.21,2.154 4.767,6.665 4.221,12.41l67.939,39.472c0.534,-5.739 -1.017,-10.25 -4.233,-12.409Z" style="fill:#fbb400;fill-rule:nonzero;"/><clipPath id="_clip19"><path d="M748.337,401.974l-67.927,-39.473c3.21,2.154 4.767,6.665 4.221,12.41l67.939,39.472c0.534,-5.739 -1.017,-10.25 -4.233,-12.409Z" clip-rule="nonzero"/></clipPath><g clip-path="url(#_clip19)"><path d="M748.337,401.974l-67.927,-39.473c3.21,2.154 4.767,6.665 4.221,12.41l67.939,39.472c0.534,-5.739 -1.017,-10.25 -4.233,-12.409Z" style="fill:#fbb400;fill-rule:nonzero;"/></g><path d="M802.037,208.867l-67.933,-39.472c-2.324,6.085 -6.318,11.722 -10.949,15.478l67.928,39.478c4.642,-3.756 8.625,-9.393 10.954,-15.484Z" style="fill:#fbb400;fill-rule:nonzero;"/><clipPath id="_clip20"><path d="M802.037,208.867l-67.933,-39.472c-2.324,6.085 -6.318,11.722 -10.949,15.478l67.928,39.478c4.642,-3.756 8.625,-9.393 10.954,-15.484Z" clip-rule="nonzero"/></clipPath><g clip-path="url(#_clip20)"><path d="M802.037,208.867l-67.933,-39.472c-2.324,6.085 -6.318,11.722 -10.949,15.478l67.928,39.478c4.642,-3.756 8.625,-9.393 10.954,-15.484Z" style="fill:#fbb400;fill-rule:nonzero;"/></g><path d="M883.096,44.227l-67.933,-39.478c-3.154,-1.829 -7.353,-1.233 -11.546,1.182l67.928,39.484c4.198,-2.421 8.397,-3.017 11.551,-1.188Z" style="fill:#fbb400;fill-rule:nonzero;"/><clipPath id="_clip21"><path d="M883.096,44.227l-67.933,-39.478c-3.154,-1.829 -7.353,-1.233 -11.546,1.182l67.928,39.484c4.198,-2.421 8.397,-3.017 11.551,-1.188Z" clip-rule="nonzero"/></clipPath><g clip-path="url(#_clip21)"><path d="M883.096,44.227l-67.933,-39.478c-3.154,-1.829 -7.353,-1.233 -11.546,1.182l67.928,39.484c4.198,-2.421 8.397,-3.017 11.551,-1.188Z" style="fill:#fbb400;fill-rule:nonzero;"/></g><path d="M857.408,63.103l-67.933,-39.478l-55.371,145.77l67.933,39.472l55.371,-145.764Z" style="fill:#fbb400;fill-rule:nonzero;"/><path d="M871.545,45.415l-67.928,-39.484c-5.534,3.199 -11.051,9.563 -14.142,17.694l67.933,39.478c3.091,-8.131 8.608,-14.495 14.137,-17.688Z" style="fill:#fbb400;fill-rule:nonzero;"/><clipPath id="_clip22"><path d="M871.545,45.415l-67.928,-39.484c-5.534,3.199 -11.051,9.563 -14.142,17.694l67.933,39.478c3.091,-8.131 8.608,-14.495 14.137,-17.688Z" clip-rule="nonzero"/></clipPath><g clip-path="url(#_clip22)"><path d="M871.545,45.415l-67.928,-39.484c-5.534,3.199 -11.051,9.563 -14.142,17.694l67.933,39.478c3.091,-8.131 8.608,-14.495 14.137,-17.688Z" style="fill:#fbb400;fill-rule:nonzero;"/></g><path d="M671.268,350.365l-67.934,-39.484l77.076,51.62l67.927,39.473l-77.069,-51.609Z" style="fill:#fbb400;fill-rule:nonzero;"/><path d="M791.083,224.351l-67.928,-39.478l-111.15,89.979l67.939,39.478l111.139,-89.979Z" style="fill:#fbb400;fill-rule:nonzero;"/><path d="M871.545,45.415c-5.529,3.193 -11.046,9.557 -14.137,17.688l-55.371,145.764c-2.329,6.091 -6.312,11.728 -10.954,15.484l-111.139,89.979c-12.427,10.051 -17.302,30.267 -8.676,36.035l77.069,51.609c3.216,2.159 4.767,6.67 4.233,12.409l-12.682,137.031c-1.142,12.33 6.989,16.887 16.211,11.563c2.233,-1.29 4.534,-3.153 6.778,-5.636l103.008,-113.844c2.148,-2.386 4.461,-4.295 6.768,-5.63c2.318,-1.336 4.63,-2.103 6.784,-2.199l103.32,-5.273c2.25,-0.119 4.551,-0.904 6.784,-2.194c9.222,-5.323 17.296,-19.238 16.092,-30.21l-13.41,-121.969c-0.574,-5.102 0.949,-11.386 4.142,-17.239l76.548,-140.315c8.545,-15.677 3.573,-30.206 -8.847,-25.916l-111.315,38.467c-4.642,1.591 -8.654,0.574 -10.978,-2.824l-56.018,-81.456c-3.136,-4.54 -8.676,-4.517 -14.21,-1.324Z" style="fill:#fbd037;fill-rule:nonzero;"/><path d="M679.944,314.33l-67.939,-39.478c-12.427,10.051 -17.296,30.267 -8.671,36.029l67.934,39.484c-8.626,-5.768 -3.751,-25.984 8.676,-36.035Z" style="fill:#fbb400;fill-rule:nonzero;"/><clipPath id="_clip23"><path d="M679.944,314.33l-67.939,-39.478c-12.427,10.051 -17.296,30.267 -8.671,36.029l67.934,39.484c-8.626,-5.768 -3.751,-25.984 8.676,-36.035Z" clip-rule="nonzero"/></clipPath><g clip-path="url(#_clip23)"><path d="M679.944,314.33l-67.939,-39.478c-12.427,10.051 -17.296,30.267 -8.671,36.029l67.934,39.484c-8.626,-5.768 -3.751,-25.984 8.676,-36.035Z" style="fill:#fbb400;fill-rule:nonzero;"/></g><path d="M607.153,1194.64l-40.041,-23.267c-1.267,-0.739 -2.926,-0.87 -4.909,-0.182l40.035,23.267c1.983,-0.687 3.642,-0.557 4.915,0.182Z" style="fill:#d6dbf2;fill-rule:nonzero;"/><clipPath id="_clip24"><path d="M607.153,1194.64l-40.041,-23.267c-1.267,-0.739 -2.926,-0.87 -4.909,-0.182l40.035,23.267c1.983,-0.687 3.642,-0.557 4.915,0.182Z" clip-rule="nonzero"/></clipPath><g clip-path="url(#_clip24)"><path d="M607.153,1194.64l-40.041,-23.267c-1.267,-0.739 -2.926,-0.87 -4.909,-0.182l40.035,23.267c1.983,-0.687 3.642,-0.557 4.915,0.182Z" style="fill:#d6dbf2;fill-rule:nonzero;"/></g><path d="M373.863,1449.08l40.035,23.267c-1.932,-1.125 -3.068,-3.665 -2.716,-7.449l-40.035,-23.267c-0.352,3.79 0.785,6.329 2.716,7.449Z" style="fill:#d6dbf2;fill-rule:nonzero;"/><clipPath id="_clip25"><path d="M373.863,1449.08l40.035,23.267c-1.932,-1.125 -3.068,-3.665 -2.716,-7.449l-40.035,-23.267c-0.352,3.79 0.785,6.329 2.716,7.449Z" clip-rule="nonzero"/></clipPath><g clip-path="url(#_clip25)"><path d="M411.182,1464.89l-40.035,-23.267c-0.352,3.79 0.785,6.329 2.716,7.449l40.035,23.267c-1.932,-1.125 -3.068,-3.665 -2.716,-7.449Z" style="fill:#d6dbf2;fill-rule:nonzero;"/></g><path d="M602.238,1194.46l-40.035,-23.267l-65.604,22.665l40.035,23.268l65.604,-22.666Z" style="fill:#d6dbf2;fill-rule:nonzero;"/><path d="M491.667,1193.65l40.041,23.267c1.329,0.773 3.04,0.858 4.926,0.211l-40.035,-23.268c-1.892,0.648 -3.602,0.568 -4.932,-0.21Z" style="fill:#d6dbf2;fill-rule:nonzero;"/><clipPath id="_clip26"><path d="M491.667,1193.65l40.041,23.267c1.329,0.773 3.04,0.858 4.926,0.211l-40.035,-23.268c-1.892,0.648 -3.602,0.568 -4.932,-0.21Z" clip-rule="nonzero"/></clipPath><g clip-path="url(#_clip26)"><path d="M536.634,1217.13l-40.035,-23.268c-1.892,0.648 -3.602,0.568 -4.932,-0.21l40.041,23.267c1.329,0.773 3.04,0.858 4.926,0.211Z" style="fill:#d6dbf2;fill-rule:nonzero;"/></g><path d="M418.654,1384.14l-40.04,-23.268l-7.467,80.758l40.035,23.267l7.472,-80.757Z" style="fill:#d6dbf2;fill-rule:nonzero;"/><path d="M416.165,1376.82l-40.04,-23.261c1.898,1.267 2.812,3.926 2.489,7.312l40.04,23.268c0.318,-3.387 -0.596,-6.046 -2.489,-7.319Z" style="fill:#d6dbf2;fill-rule:nonzero;"/><clipPath id="_clip27"><path d="M416.165,1376.82l-40.04,-23.261c1.898,1.267 2.812,3.926 2.489,7.312l40.04,23.268c0.318,-3.387 -0.596,-6.046 -2.489,-7.319Z" clip-rule="nonzero"/></clipPath><g clip-path="url(#_clip27)"><path d="M416.165,1376.82l-40.04,-23.261c1.898,1.267 2.812,3.926 2.489,7.312l40.04,23.268c0.318,-3.387 -0.596,-6.046 -2.489,-7.319Z" style="fill:#d6dbf2;fill-rule:nonzero;"/></g><path d="M447.808,1263.01l-40.035,-23.262c-1.369,3.586 -3.721,6.91 -6.454,9.12l40.034,23.273c2.734,-2.222 5.086,-5.534 6.455,-9.131Z" style="fill:#d6dbf2;fill-rule:nonzero;"/><clipPath id="_clip28"><path d="M447.808,1263.01l-40.035,-23.262c-1.369,3.586 -3.721,6.91 -6.454,9.12l40.034,23.273c2.734,-2.222 5.086,-5.534 6.455,-9.131Z" clip-rule="nonzero"/></clipPath><g clip-path="url(#_clip28)"><path d="M447.808,1263.01l-40.035,-23.262c-1.369,3.586 -3.721,6.91 -6.454,9.12l40.034,23.273c2.734,-2.222 5.086,-5.534 6.455,-9.131Z" style="fill:#d6dbf2;fill-rule:nonzero;"/></g><path d="M495.582,1165.98l-40.035,-23.268c-1.864,-1.079 -4.335,-0.727 -6.807,0.699l40.035,23.268c2.472,-1.427 4.949,-1.779 6.807,-0.699Z" style="fill:#d6dbf2;fill-rule:nonzero;"/><clipPath id="_clip29"><path d="M495.582,1165.98l-40.035,-23.268c-1.864,-1.079 -4.335,-0.727 -6.807,0.699l40.035,23.268c2.472,-1.427 4.949,-1.779 6.807,-0.699Z" clip-rule="nonzero"/></clipPath><g clip-path="url(#_clip29)"><path d="M495.582,1165.98l-40.035,-23.268c-1.864,-1.079 -4.335,-0.727 -6.807,0.699l40.035,23.268c2.472,-1.427 4.949,-1.779 6.807,-0.699Z" style="fill:#d6dbf2;fill-rule:nonzero;"/></g><path d="M480.44,1177.1l-40.035,-23.268l-32.632,85.911l40.035,23.262l32.632,-85.905Z" style="fill:#d6dbf2;fill-rule:nonzero;"/><path d="M488.775,1166.68l-40.035,-23.268c-3.261,1.886 -6.511,5.637 -8.335,10.426l40.035,23.268c1.824,-4.79 5.079,-8.546 8.335,-10.426Z" style="fill:#d6dbf2;fill-rule:nonzero;"/><clipPath id="_clip30"><path d="M488.775,1166.68l-40.035,-23.268c-3.261,1.886 -6.511,5.637 -8.335,10.426l40.035,23.268c1.824,-4.79 5.079,-8.546 8.335,-10.426Z" clip-rule="nonzero"/></clipPath><g clip-path="url(#_clip30)"><path d="M488.775,1166.68l-40.035,-23.268c-3.261,1.886 -6.511,5.637 -8.335,10.426l40.035,23.268c1.824,-4.79 5.079,-8.546 8.335,-10.426Z" style="fill:#d6dbf2;fill-rule:nonzero;"/></g><path d="M370.738,1346.4l-40.035,-23.268l45.422,30.422l40.04,23.261l-45.427,-30.415Z" style="fill:#d6dbf2;fill-rule:nonzero;"/><path d="M441.353,1272.14l-40.034,-23.273l-65.507,53.029l40.04,23.268l65.501,-53.024Z" style="fill:#d6dbf2;fill-rule:nonzero;"/><path d="M488.775,1166.68c-3.256,1.88 -6.511,5.636 -8.335,10.426l-32.632,85.905c-1.369,3.597 -3.721,6.909 -6.455,9.131l-65.501,53.024c-7.324,5.926 -10.193,17.841 -5.114,21.239l45.427,30.415c1.893,1.273 2.807,3.932 2.489,7.319l-7.472,80.757c-0.676,7.267 4.12,9.955 9.557,6.813c1.313,-0.756 2.665,-1.858 3.989,-3.324l60.712,-67.092c1.261,-1.404 2.625,-2.529 3.988,-3.319c1.364,-0.789 2.728,-1.238 4.001,-1.295l60.887,-3.108c1.33,-0.068 2.682,-0.529 4,-1.296c5.438,-3.13 10.194,-11.335 9.483,-17.801l-7.903,-71.882c-0.335,-3.006 0.562,-6.711 2.443,-10.165l45.115,-82.69c5.034,-9.239 2.102,-17.807 -5.216,-15.273l-65.604,22.666c-2.733,0.937 -5.097,0.34 -6.472,-1.66l-33.012,-48.006c-1.846,-2.676 -5.114,-2.665 -8.375,-0.784Z" style="fill:#bbc3e9;fill-rule:nonzero;"/><path d="M375.852,1325.16l-40.04,-23.268c-7.319,5.927 -10.188,17.842 -5.109,21.239l40.035,23.268c-5.079,-3.398 -2.21,-15.313 5.114,-21.239Z" style="fill:#d6dbf2;fill-rule:nonzero;"/><clipPath id="_clip31"><path d="M375.852,1325.16l-40.04,-23.268c-7.319,5.927 -10.188,17.842 -5.109,21.239l40.035,23.268c-5.079,-3.398 -2.21,-15.313 5.114,-21.239Z" clip-rule="nonzero"/></clipPath><g clip-path="url(#_clip31)"><path d="M375.852,1325.16l-40.04,-23.268c-7.319,5.927 -10.188,17.842 -5.109,21.239l40.035,23.268c-5.079,-3.398 -2.21,-15.313 5.114,-21.239Z" style="fill:#d6dbf2;fill-rule:nonzero;"/></g><path d="M1204.75,1212.08c1.233,-0.244 2.58,0.403 3.489,1.347c0.909,0.932 1.466,2.113 2.005,3.267c5.075,11.04 9.899,24.58 13.393,36.069l-0.438,-0.631c0.517,1.614 0.983,3.244 1.37,4.892l0.176,0.943c2.932,2.358 5.773,4.978 6.92,8.376c0.796,2.369 0.671,4.875 0.319,7.261c-0.586,4 -4.302,15.108 -6.052,18.705c-0.477,0.966 -3.915,2.739 -5.522,2.358l-0.273,-0.511l-0.239,0.267c-3.386,0.829 -6.574,2.273 -9.335,4.25c-2.29,1.625 -4.586,0.028 -7.54,-0.341c-4.461,-16.188 -13.932,-27.87 -15.256,-44.342c-0.165,-2.051 -0.159,-4.244 1,-5.875c1.153,-1.636 3.886,-2.301 5.483,-0.835c-0.108,-2.086 1.244,-4.057 3.244,-4.728c1.995,-0.67 4.489,0.006 5.978,1.631c0.261,-1.847 2.045,-3.188 3.988,-3.318c0.91,-0.057 1.836,0.125 2.705,0.477c-2.602,-6.432 -4.83,-12.585 -6.796,-20.159c-0.636,-2.484 -2.022,-5.87 -0.539,-7.83c0.466,-0.625 1.125,-1.125 1.92,-1.273Z" style="fill:#fbc4aa;fill-rule:nonzero;"/><path d="M1423.26,2009.33c-0.727,-2.295 -2.193,-3.534 -6.358,-3.875c-4.921,-0.403 -9.864,-0.625 -14.801,-0.937c-6.677,-0.426 -13.347,-0.852 -20.024,-1.279c0.336,-5.403 0.489,-10.898 1.086,-16.267c-7.097,1.517 -11.035,-0.557 -17.83,-3.074c-8.006,-2.955 -16.126,-5.625 -24.319,-8.011c-3.5,-1.018 -7.171,-1.989 -10.75,-1.256c-9.017,1.841 -13.944,16.688 -12.728,24.483c0.858,5.517 4.58,10.216 8.972,13.665c6.568,5.188 15.824,9.41 24.103,10.648c8.875,1.336 17.023,4.097 24.171,9.694c9.25,7.244 15.847,14.881 28.108,15.756c12.302,0.886 22.507,-6.58 22.984,-19.296c0.17,-4.563 -0.637,-9.091 -1.432,-13.58c-0.5,-2.818 -0.653,-5.023 -1.182,-6.671Z" style="fill:#2c2230;fill-rule:nonzero;"/><path d="M1360.75,2031.62c-0.005,-0.977 0.018,-1.949 0.08,-2.926c0.648,-10.006 -3.199,-18.455 -6.852,-27.705c-1.353,-3.449 -2.841,-7.068 -5.739,-9.375c-6.603,-5.267 -17.074,-0.648 -21.273,6.687c-1.944,3.398 -3.023,7.222 -4.768,10.734c-3.312,6.653 -9.977,14.597 -18.011,14.96c-10.796,0.483 -22.927,-3.233 -33.865,-3.886c-4.261,-0.262 -8.676,-0.409 -12.636,1.193c-9.324,3.773 -12.012,18.819 -8.682,27.222c2.057,5.182 6.727,8.938 11.767,11.336c7.563,3.608 17.517,5.676 25.876,5.051c8.949,-0.671 17.5,0.227 25.716,4.102c14.091,6.654 30.472,16.211 44.711,3.245c3.801,-3.461 5.659,-8.648 6.103,-13.773c0.784,-9.075 -2.296,-17.859 -2.427,-26.865Z" style="fill:#2c2230;fill-rule:nonzero;"/><path d="M1401.7,1616.3c-6.614,7.023 -32.535,-4.972 -32.967,-8.324c-31.029,-22.864 -25.114,71.325 -15.449,108.576c5.182,20.08 4.466,41.132 7.773,61.575c3.677,22.779 9.052,45.297 16.057,67.286c1.506,4.75 3.205,9.659 6.716,13.193c7.234,7.324 19.16,6.313 29.262,4.398c8.768,-1.648 18.546,-4.375 22.683,-12.273c2.557,-4.858 2.329,-10.636 2.153,-16.12c-0.437,-14.471 -0.897,-29.409 1.637,-43.694c2.704,-15.233 5.414,-30.472 8.113,-45.717c2.364,-13.329 4.734,-26.688 5.739,-40.188c1.83,-24.404 -0.824,-48.91 -5.17,-72.928c-2.279,-12.608 1.352,-36.421 -16.677,-38.535c-16.307,-1.914 -25.461,18.075 -29.87,22.751Z" style="fill:#2c2230;fill-rule:nonzero;"/><path d="M1368.24,1826.69l-5.045,-21.177c2.017,6.989 3.676,14.052 5.045,21.177Z" style="fill:#6b4aaf;fill-rule:nonzero;"/><path d="M1380.56,1837.33c5.045,-7.341 17.966,-7.284 22.335,-5.472c3.432,1.427 27.808,-13.364 34.939,-19.011c-0.534,0.426 0.591,6.397 0.664,7.29c0.222,2.505 0.438,5.011 0.625,7.522c0.398,4.949 0.745,9.904 1.046,14.864c0.591,9.699 1.17,19.399 1.17,29.115c0.006,70.28 -12.801,131.537 -14.119,138.616c-0.654,3.546 -1.387,7.256 -3.688,10.04c-3.261,3.943 -12.58,7.927 -26.086,5.864c-8.596,-1.313 -15.835,-7.04 -18.688,-15.37c-2.494,-7.29 -2.051,-15.222 -1.573,-22.915c1.88,-30.364 3.932,-60.501 3.227,-90.945c-0.568,-24.472 -2.477,-49.081 -7.688,-72.945l7.836,13.347Z" style="fill:#2c2230;fill-rule:nonzero;"/><path d="M1296.3,1684.5c-1.619,29.705 -1.347,59.524 1.04,89.156c1.443,17.886 3.613,35.699 6.506,53.376c1.448,8.841 3.073,17.648 4.874,26.409c1.734,8.421 3.404,11.086 10.319,15.694c14.841,9.881 42.063,9.318 53.285,-7.483c12.091,-18.074 7.995,-46.814 12.233,-67.382c6.16,-29.899 26.723,-51.411 36.632,-79.701c3.563,-10.154 5.267,-20.074 5.744,-30.069l-130.633,0Z" style="fill:#3a3240;fill-rule:nonzero;"/><path d="M1457.98,1543.43c0.659,-5.29 1.449,-10.569 2.38,-15.824c4.421,-25.188 11.961,-49.791 15.131,-75.212c2.461,-19.739 4.233,-44.354 -11.426,-59.604c-2.551,-2.489 -5.483,-4.551 -8.58,-6.301c-30.426,-17.182 -59.524,3.739 -88.047,14.012c-18.728,6.75 -36.694,15.602 -53.467,26.324c-5.847,3.733 -11.83,6.29 -15.756,12.103c-4.165,6.159 -6.398,12.818 -6.824,20.267c-0.477,8.449 1.074,16.864 2.483,25.216c8.205,48.604 11.807,98.304 5.949,147.242c-2.529,21.069 -5.023,78.638 -5.023,78.638c7.012,3.046 11.495,5.927 45.484,6.529c70.201,1.256 109.025,-16.444 113.071,-20.131c4.045,-3.699 2.625,-12.216 2.767,-17.325c0.443,-15.273 0.142,-30.551 -0.21,-45.819c-0.711,-30.034 -1.688,-60.217 2.068,-90.115Z" style="fill:#fa433d;fill-rule:nonzero;"/><path d="M1309.4,1867.48c0.926,15.421 1.75,30.842 2.432,46.263c0.545,12.199 0.994,24.409 1.312,36.62c0.25,9.404 0.426,18.807 0.517,28.211c0.46,51.484 -5.278,62.91 18.802,70.206c5.398,1.631 11.165,2.227 16.665,1.011c15.892,-3.5 18.978,-17.307 21.364,-34.466c1.341,-9.643 2.142,-21.285 2.705,-31.052c0.477,-8.256 0.869,-16.529 1.21,-24.791c0.489,-11.182 0.892,-22.364 1.295,-33.551c0.523,-14.756 1.029,-29.512 1.5,-44.268c0.625,-18.864 2.728,-38.086 3.341,-56.956c0.091,-2.739 -1.568,-5.625 -3.716,-7.125c-2.784,-1.938 -60.154,17.381 -66.098,23.671c0,-0 -2.477,7.182 -1.329,26.227Z" style="fill:#3a3240;fill-rule:nonzero;"/><path d="M1326.75,1418.08c-15.983,-10.091 -53.359,-35.842 -59.921,-45.251c-17.137,-24.58 -29.262,-64.178 -33.484,-82.689c-1.432,-6.251 -38.552,-0.427 -40.49,3.704c-1.59,3.409 5.472,48.461 6.716,55.166c6.364,34.302 17.364,56.302 21.91,62.246c12.034,15.716 63.621,69.626 67.161,72.234c10.227,7.54 35.131,5.273 43.211,-0.721c51.683,-38.325 1.346,-60.615 -5.103,-64.689Z" style="fill:#fb5651;fill-rule:nonzero;"/><path d="M1359.83,1375.73c-1.097,-7.54 -6.796,-5.784 -3.915,-12.625c2.443,-5.801 6.159,-11.142 11.142,-14.995c4.978,-3.852 11.273,-6.13 17.558,-5.784c2.164,0.119 3.613,1.358 5.761,1.364c5.932,0.028 11.898,-1.108 17.819,-0.25c5.892,0.852 11.341,1.284 11.341,7.932c-0.006,8.869 -0.415,17.398 2.426,26.12c1.511,4.653 3.807,9.148 4.222,14.023c0.795,9.597 -6.216,18.546 -14.881,22.739c-10.654,5.153 -22.711,4.682 -34.047,3.034c-5.687,-0.824 -13.699,-1.955 -17.04,-7.381c-2.505,-4.085 -1.431,-9.438 -0.897,-13.909c0.818,-6.779 1.505,-13.461 0.511,-20.268Z" style="fill:#fbc4aa;fill-rule:nonzero;"/><path d="M1334.37,1279.37c-3.574,4.358 -6.381,9.267 -7.233,15.011c-1.915,12.819 3.238,25.989 0.46,38.711c-2.693,12.319 2.591,40.297 26.887,47.467c12.284,3.625 36.54,-0.619 44.347,-4.358c10.472,-5.023 17.381,-15.165 23.575,-24.989c50.751,-80.581 -53.609,-113.724 -88.036,-71.842Z" style="fill:#fbc4aa;fill-rule:nonzero;"/><path d="M1445.54,1315.09c-0.329,2.381 -0.665,4.773 -1.119,7.131c-0.347,1.795 -0.767,3.562 -1.33,5.301c-0.472,1.5 -1.04,2.966 -1.693,4.381c-2.409,5.398 -5.841,10.335 -9.25,15.188c-4.716,6.721 -9.762,13.699 -17.165,17.261c-3.199,1.546 -6.688,2.37 -10.154,3.131c-9.591,2.119 -23.762,2.568 -31.137,-5.386c-3.284,-3.529 -4.608,-8.54 -5.205,-13.222c-0.585,-4.62 -0.739,-8.557 -1.989,-13.199c-0.301,-1.142 -0.607,-2.267 -0.96,-3.398c-0.557,-1.807 -1.199,-3.586 -2.136,-5.228c-1.523,-2.659 -3.824,-5.005 -6.756,-5.897c-5.028,-1.529 -11.057,1.318 -15.426,-1.58c-2.25,-1.506 -3.393,-4.148 -4.41,-6.642c-1.017,-2.472 -1.92,-5.233 -2.937,-7.944c-1.347,-3.585 -2.892,-7.113 -5.114,-9.926c-1.182,-1.489 -2.562,-2.852 -3.494,-4.506c-1.29,-2.272 -2.779,-4.38 -2.875,-6.966c-0.489,-11.807 9.233,-23.466 17.381,-30.989c4.386,-4.034 9.239,-7.676 14.716,-10.046c4.812,-2.057 10.006,-3.085 15.171,-3.818c15.341,-2.21 31.767,-1.852 45.302,5.688c3.574,1.988 7.023,4.602 8.767,8.329c0.381,0.819 0.676,1.711 1.273,2.421c0.778,0.932 1.977,1.415 3.091,1.943c3.682,1.71 6.704,3.881 9.159,6.415c12.421,12.779 10.637,34.563 8.29,51.558Z" style="fill:#2c2230;fill-rule:nonzero;"/><path d="M1362.15,1315.65c9.722,-0.824 12.404,11.222 5.881,20.676c-1.915,2.762 -5.318,5.245 -7.841,7.461c-17.194,15.159 -21.853,-0.853 -16.398,-6.006c12.682,-11.978 6.108,-21.097 18.358,-22.131Z" style="fill:#fbc4aa;fill-rule:nonzero;"/><path d="M1359.5,1334.06c1.102,-1.04 12.103,-7.779 4.46,-12.12c-2.119,-1.199 -4.42,0.676 -4.693,2.904c-0.153,1.148 0.227,2.324 0.068,3.472c-0.085,0.681 -0.358,1.329 -0.71,1.92c-0.954,1.625 -4.296,3.227 -3.597,5.563c0.625,2.068 3.841,-1.137 4.472,-1.739Z" style="fill:#efa682;fill-rule:nonzero;"/></g></g><defs><linearGradient id="_Linear15" x1="0" y1="0" x2="1" y2="0" gradientUnits="userSpaceOnUse" gradientTransform="matrix(-1158.52,-855.643,-855.643,1158.52,1825.3,880.029)"><stop offset="0" style="stop-color:#4daee8;stop-opacity:1"/><stop offset="1" style="stop-color:#1857e2;stop-opacity:1"/></linearGradient></defs></svg>